<?xml version="1.0" standalone="no"?>
<!DOCTYPE svg PUBLIC "-//W3C//DTD SVG 20010904//EN"
 "http://www.w3.org/TR/2001/REC-SVG-20010904/DTD/svg10.dtd">
<svg version="1.0" xmlns="http://www.w3.org/2000/svg"
 width="400.000000pt" height="400.000000pt" viewBox="0 0 400.000000 400.000000"
 preserveAspectRatio="xMidYMid meet">

<g transform="translate(0.000000,400.000000) scale(0.100000,-0.100000)"
fill="#000000" stroke="none">
<path d="M1843 3579 c-247 -24 -492 -109 -700 -245 -89 -57 -232 -173 -267
-216 -11 -13 -44 -50 -74 -83 -165 -181 -297 -453 -353 -725 -31 -152 -33
-411 -5 -570 106 -601 564 -1099 1146 -1245 151 -38 245 -49 405 -48 395 2
755 141 1050 407 l50 45 -161 162 -162 162 -63 -53 c-137 -115 -286 -192 -457
-237 -84 -22 -118 -26 -257 -26 -166 -1 -233 9 -367 53 -310 102 -570 358
-682 668 -52 145 -61 204 -60 387 1 151 4 181 27 270 51 189 156 371 295 510
229 229 553 345 878 314 239 -22 454 -115 627 -270 l59 -52 164 164 c188 188
182 157 54 264 -256 213 -552 336 -882 365 -125 11 -146 11 -265 -1z"/>
<path d="M1625 3010 c-249 -86 -482 -298 -599 -545 -189 -396 -113 -858 194
-1189 66 -72 203 -172 295 -216 174 -84 322 -115 515 -107 129 5 260 30 260
51 0 6 -14 56 -31 111 -17 55 -36 117 -41 138 -10 37 -13 39 -42 33 -204 -43
-368 -23 -536 65 -336 174 -486 574 -350 928 71 184 222 339 400 412 92 38 89
14 26 208 l-41 128 -50 -17z"/>
<path d="M1433 2448 c-52 -64 -106 -172 -129 -258 -27 -100 -25 -274 5 -370
66 -216 217 -382 421 -463 144 -57 327 -62 475 -12 86 28 203 96 247 142 l28
29 -84 83 -85 84 -36 -31 c-73 -65 -180 -102 -289 -102 -383 1 -598 423 -375
735 l42 57 -79 79 c-43 43 -83 79 -89 79 -5 0 -29 -23 -52 -52z"/>
</g>
</svg>
